<svg xmlns="http://www.w3.org/2000/svg" xml:space="preserve" style="enable-background:new 0 0 429.568 429.568" viewBox="0 0 429.568 429.568">
  <path d="M242.176 243.968c-4.608-14.848-20.48-24.064-35.84-20.48-7.68 2.048-13.824 6.656-17.408 13.312-4.096 6.656-5.12 14.336-3.072 21.504 2.048 7.168 6.656 13.824 13.312 17.408 4.608 2.56 9.728 4.096 14.848 4.096 2.56 0 4.608-.512 7.168-1.024 15.36-3.584 24.576-19.456 20.992-34.816zm-24.064 25.088c-4.608 1.024-9.728.512-13.824-2.048s-7.168-6.656-8.192-11.264-.512-9.728 2.048-13.824 6.656-7.168 11.264-8.192c1.536-.512 3.072-.512 4.608-.512 8.192 0 15.872 5.632 17.92 13.824 2.048 9.728-4.096 19.968-13.824 22.016zM184.832 224.512c-1.024-3.584-3.584-7.168-6.656-9.216-3.584-2.048-7.168-2.56-11.264-1.536-3.584 1.024-7.168 3.584-9.216 6.656-2.048 3.584-2.56 7.168-1.536 11.264 1.536 6.656 7.68 11.264 14.336 11.264 1.024 0 2.56 0 3.584-.512 7.68-2.56 12.8-10.24 10.752-17.92zm-13.312 7.68c-2.56.512-4.608-1.024-5.632-3.072-.512-1.024 0-2.56.512-3.584s1.536-1.536 2.56-2.048h1.024c1.024 0 1.536 0 2.048.512 1.024.512 1.536 1.536 2.048 2.56 1.536 2.56 0 5.12-2.56 5.632zM209.92 200.448c-1.024-3.584-3.584-7.168-6.656-9.216-3.584-2.048-7.168-2.56-11.264-1.536-3.584 1.024-7.168 3.584-9.216 6.656-1.536 3.072-2.56 7.168-1.536 11.264 1.536 6.656 7.68 11.264 14.336 11.264 1.024 0 2.56 0 3.584-.512 3.584-1.024 7.168-3.584 9.216-6.656 2.048-3.584 2.56-7.168 1.536-11.264zm-10.24 5.632c-.512 1.024-1.536 1.536-2.56 2.048-2.56.512-4.608-1.024-5.632-3.072-.512-2.56.512-5.12 3.072-5.632 1.024-.512 2.56 0 3.584.512s1.536 1.536 2.048 2.56 0 2.56-.512 3.584zM245.76 199.936c-1.024-3.584-3.584-7.168-6.656-9.216-3.584-2.048-7.168-2.56-11.264-1.536-3.584 1.024-7.168 3.584-9.216 6.656-2.048 3.584-2.56 7.168-1.536 11.264 1.024 4.096 3.072 7.168 6.656 9.216 2.56 1.536 5.12 2.048 7.68 2.048 1.024 0 2.56 0 3.584-.512 7.68-2.048 12.8-9.728 10.752-17.92zm-13.824 8.192c-2.56.512-4.608-1.024-5.632-3.072.512-1.536.512-2.56 1.024-3.584s1.536-1.536 2.56-2.048h1.024c1.024 0 1.536 0 2.048.512 1.024.512 1.536 1.536 2.048 2.56.512 2.56-1.024 4.608-3.072 5.632zM271.36 224c-2.048-8.192-10.24-12.8-17.92-10.752-7.68 2.048-12.8 9.728-10.752 17.92 1.024 3.584 3.584 7.168 6.656 9.216 2.56 1.536 5.12 2.048 7.68 2.048 1.024 0 2.56 0 3.584-.512 7.68-2.048 12.8-9.728 10.752-17.92zm-13.312 7.68c-1.024.512-2.56 0-3.584-.512s-1.536-1.536-2.048-2.56c-.512-2.56 1.024-4.608 3.072-5.632 2.56-.512 4.608 1.024 5.632 3.072.512 2.56-1.024 5.12-3.072 5.632z"/>
  <path d="M429.056 271.104 386.56 150.272c-.512-6.656-8.704-13.312-53.248-18.944-31.744-4.096-73.728-6.144-118.784-6.144-44.544 0-87.04 2.048-118.784 6.144-43.52 5.632-51.712 12.288-52.736 18.944L.512 271.104c0 .512-.512 1.024-.512 1.536 0 7.68 7.68 16.384 66.048 24.064 39.936 5.12 92.672 7.68 148.992 7.68s109.056-2.56 148.992-7.68c57.856-7.68 65.536-16.384 65.536-24.064 0-.512 0-1.024-.512-1.536zM215.04 134.912c91.136 0 150.528 9.216 160.768 15.872-10.24 6.656-69.12 15.872-160.768 15.872-91.136 0-150.528-9.216-160.768-15.872 10.24-6.656 69.12-15.872 160.768-15.872zm0 159.232c-120.832 0-196.096-12.288-204.288-21.504l39.424-112.128c7.168 3.584 20.48 7.168 46.08 10.752 31.744 4.096 73.728 6.144 118.784 6.144 44.544 0 87.04-2.048 118.784-6.144 25.6-3.072 38.912-6.656 46.08-10.752l39.424 112.128c-8.192 8.704-83.456 21.504-204.288 21.504z"/>
</svg>
